<svg width="267" height="230" viewBox="0 0 267 230" fill="none" xmlns="http://www.w3.org/2000/svg">
<g id="undraw_Data_report_re_p4so 1" clip-path="url(#clip0)">
<path id="Vector" d="M211.764 187.104H0V0H211.764V187.104ZM3.1288 183.513H208.635V3.59112H3.1288V183.513Z" fill="#E5E5E5"/>
<g id="bars">
<path id="bar1" d="M55.4219 141.041H39.3888C38.9546 141.04 38.5384 140.842 38.2314 140.49C37.9244 140.138 37.7517 139.66 37.7512 139.162V113.794C37.7517 113.296 37.9244 112.818 38.2314 112.466C38.5384 112.113 38.9546 111.915 39.3888 111.915H55.4219C55.856 111.915 56.2723 112.113 56.5793 112.466C56.8863 112.818 57.059 113.296 57.0595 113.794V139.162C57.059 139.66 56.8863 140.138 56.5793 140.49C56.2723 140.842 55.856 141.04 55.4219 141.041V141.041Z" fill="#E88919"/>
<path id="bar2" d="M84.6602 141.041H68.6271C68.193 141.04 67.7767 140.842 67.4697 140.49C67.1627 140.138 66.99 139.66 66.9895 139.161V89.733C66.99 89.2347 67.1627 88.757 67.4697 88.4046C67.7767 88.0523 68.193 87.8541 68.6271 87.8535H84.6602C85.0944 87.8541 85.5106 88.0523 85.8176 88.4046C86.1246 88.757 86.2973 89.2347 86.2978 89.733V139.161C86.2973 139.66 86.1246 140.138 85.8176 140.49C85.5106 140.842 85.0944 141.04 84.6602 141.041Z" fill="#1712F2"/>
<path id="bar3" d="M113.899 141.041H97.8654C97.4313 141.04 97.015 140.842 96.708 140.49C96.401 140.138 96.2283 139.66 96.2278 139.162V113.794C96.2283 113.296 96.401 112.818 96.708 112.466C97.015 112.113 97.4313 111.915 97.8654 111.915H113.899C114.333 111.915 114.749 112.113 115.056 112.466C115.363 112.818 115.536 113.296 115.536 113.794V139.162C115.536 139.66 115.363 140.138 115.056 140.49C114.749 140.842 114.333 141.04 113.899 141.041V141.041Z" fill="#FDDC30"/>
<path id="bar4" d="M143.137 141.041H127.104C126.679 141.051 126.269 140.868 125.962 140.532C125.655 140.196 125.477 139.734 125.466 139.247V80.1501C125.477 79.6632 125.655 79.2009 125.962 78.8646C126.269 78.5283 126.679 78.3453 127.104 78.3558H143.137C143.561 78.3453 143.972 78.5283 144.279 78.8646C144.586 79.2009 144.764 79.6632 144.774 80.1501V139.247C144.764 139.734 144.586 140.196 144.279 140.532C143.972 140.868 143.561 141.051 143.137 141.041Z" fill="#B04444"/>
<path id="bar5" d="M172.375 140.041H156.342C155.908 140.04 155.492 139.842 155.185 139.49C154.878 139.138 154.705 138.66 154.704 138.162V62.1393C154.705 61.641 154.878 61.1633 155.185 60.8109C155.492 60.4586 155.908 60.2604 156.342 60.2598H172.375C172.809 60.2604 173.226 60.4586 173.533 60.8109C173.84 61.1633 174.012 61.641 174.013 62.1393V138.162C174.012 138.66 173.84 139.138 173.533 139.49C173.226 139.842 172.809 140.04 172.375 140.041Z" fill="#F2F2F2"/>
</g>
<path id="Vector_2" d="M76.6437 79.6222C78.4717 79.6222 79.9537 77.9212 79.9537 75.8231C79.9537 73.7249 78.4717 72.024 76.6437 72.024C74.8156 72.024 73.3337 73.7249 73.3337 75.8231C73.3337 77.9212 74.8156 79.6222 76.6437 79.6222Z" fill="#3F3D56"/>
<g id="Bars">
<path id="Vector_3" d="M47.4053 104.316C49.2334 104.316 50.7153 102.615 50.7153 100.517C50.7153 98.419 49.2334 96.7181 47.4053 96.7181C45.5773 96.7181 44.0953 98.419 44.0953 100.517C44.0953 102.615 45.5773 104.316 47.4053 104.316Z" fill="#3F3D56"/>
</g>
<path id="Vector_4" d="M105.882 104.316C107.71 104.316 109.192 102.615 109.192 100.517C109.192 98.419 107.71 96.7181 105.882 96.7181C104.054 96.7181 102.572 98.419 102.572 100.517C102.572 102.615 104.054 104.316 105.882 104.316Z" fill="#3F3D56"/>
<path id="Vector_5" d="M135.12 67.5917C136.948 67.5917 138.43 65.8907 138.43 63.7926C138.43 61.6944 136.948 59.9935 135.12 59.9935C133.292 59.9935 131.81 61.6944 131.81 63.7926C131.81 65.8907 133.292 67.5917 135.12 67.5917Z" fill="#3F3D56"/>
<path id="Vector_6" d="M164.359 53.6616C166.187 53.6616 167.669 51.9607 167.669 49.8625C167.669 47.7643 166.187 46.0634 164.359 46.0634C162.531 46.0634 161.049 47.7643 161.049 49.8625C161.049 51.9607 162.531 53.6616 164.359 53.6616Z" fill="#3F3D56"/>
<path id="Vector_7" d="M105.952 101.368L76.6436 76.1726L47.7362 101.024L47.0746 100.01L76.6436 74.59L105.812 99.6661L134.798 63.2591L134.914 63.205L164.152 49.6837L164.565 50.8586L135.443 64.3257L105.952 101.368Z" fill="#3F3D56"/>
<path id="Vector_8" d="M205.258 223.796L200.278 223.796L197.909 201.748L205.259 201.748L205.258 223.796Z" fill="#FFB6B6"/>
<path id="Vector_9" d="M206.528 229.337L190.47 229.337V229.103C190.47 227.201 191.128 225.376 192.301 224.031C193.473 222.685 195.062 221.93 196.72 221.929H196.721L206.529 221.93L206.528 229.337Z" fill="#2F2E41"/>
<path id="Vector_10" d="M187.46 130.475L190.287 182.181L199.78 218.577L207.135 219.188L203.442 174.832L205.061 145.375C205.061 145.375 212.738 138.807 208.493 130.9L187.46 130.475Z" fill="#2F2E41"/>
<path id="Vector_11" d="M208.508 223.796L203.528 223.796L201.158 201.748L208.509 201.748L208.508 223.796Z" fill="#FFB6B6"/>
<path id="Vector_12" d="M209.778 229.337L193.72 229.337V229.103C193.72 227.201 194.378 225.376 195.55 224.031C196.723 222.685 198.312 221.93 199.97 221.929H199.97L209.778 221.93L209.778 229.337Z" fill="#2F2E41"/>
<path id="Vector_13" d="M190.709 130.475L193.537 182.181L203.03 218.577L210.385 219.188L206.692 174.832L208.311 145.375C208.311 145.375 215.988 138.807 211.743 130.9L190.709 130.475Z" fill="#2F2E41"/>
<path id="Vector_14" d="M206.037 138.482C197.556 138.482 187.574 132.533 186.995 132.184L186.834 132.087L206.299 75.0912L215.939 69.864C216.682 69.4616 217.504 69.2938 218.322 69.3779C219.139 69.4621 219.923 69.7952 220.591 70.3429C221.259 70.8906 221.787 71.6329 222.122 72.4934C222.457 73.3538 222.585 74.3011 222.494 75.2376L218.669 114.627L214.675 135.029L214.633 135.076C212.429 137.576 209.347 138.482 206.037 138.482Z" fill="#3F3D56"/>
<path id="Vector_15" d="M174.932 100.752C175.437 100.385 176.005 100.149 176.597 100.062C177.19 99.9741 177.791 100.037 178.36 100.245C178.929 100.453 179.452 100.802 179.891 101.267C180.329 101.731 180.674 102.301 180.9 102.936L195.395 102.027L191.592 109.504L178.41 109.221C177.457 109.586 176.419 109.538 175.495 109.084C174.57 108.631 173.823 107.803 173.394 106.76C172.966 105.716 172.885 104.528 173.169 103.42C173.452 102.313 174.08 101.364 174.932 100.752V100.752Z" fill="#FFB6B6"/>
<path id="Vector_16" d="M203.537 112.457L189.011 112.031L189.199 101.003L196.067 98.4935L207.334 80.3559C207.898 79.4477 208.615 78.6786 209.443 78.094C210.271 77.5093 211.192 77.1211 212.153 76.9522C213.113 76.7833 214.093 76.8372 215.036 77.1107C215.978 77.3842 216.862 77.8717 217.638 78.5445C218.413 79.2172 219.062 80.0615 219.548 81.0275C220.034 81.9934 220.346 83.0614 220.466 84.1682C220.587 85.275 220.512 86.3982 220.247 87.4714C219.983 88.5446 219.533 89.546 218.926 90.4164L203.537 112.457Z" fill="#3F3D56"/>
<path id="Vector_17" d="M211.948 67.7639C217.278 67.7639 221.6 62.804 221.6 56.6857C221.6 50.5673 217.278 45.6074 211.948 45.6074C206.617 45.6074 202.296 50.5673 202.296 56.6857C202.296 62.804 206.617 67.7639 211.948 67.7639Z" fill="#FFB6B6"/>
<path id="Vector_18" d="M199.736 47.4538C200.711 46.3075 201.976 45.5451 203.352 45.2764C204.692 44.9453 206.163 44.8428 207.235 43.8776C208.454 42.7633 208.99 40.6465 210.485 40.1756C211.136 40.0255 211.81 40.0869 212.431 40.3527C214.82 41.1798 216.941 42.8026 218.525 45.0153C218.898 45.6494 219.374 46.1954 219.926 46.6239C220.256 46.7844 220.579 46.965 220.893 47.1647C221.237 47.4765 221.508 47.882 221.681 48.3444C222.759 50.8418 223.007 53.7043 222.38 56.3966C222.006 57.9865 221.332 59.4599 220.933 61.0592C220.535 62.6584 218.694 65.7007 218.264 64.9454C217.833 64.19 217.281 63.486 217.045 62.6141C216.585 60.899 217 59.1731 215.831 57.9819C215.108 57.2452 213.8 56.751 213.309 57.7021C213.114 58.0705 213.126 58.5367 212.959 58.919C212.63 59.665 211.68 59.8143 211.05 59.3853C210.443 58.9044 210.017 58.1785 209.856 57.3524C208.909 53.6783 207.296 51.3657 203.872 52.937C202.596 53.5245 201.093 53.9208 199.866 52.9137C198.25 51.5895 198.579 48.9645 199.736 47.4538Z" fill="#2F2E41"/>
<path id="Vector_19" d="M178.062 147.102H162.029C161.595 147.102 161.179 146.904 160.872 146.551C160.565 146.199 160.392 145.721 160.392 145.223V69.2006C160.392 68.7023 160.565 68.2246 160.872 67.8722C161.179 67.5199 161.595 67.3217 162.029 67.3212H178.062C178.497 67.3217 178.913 67.5199 179.22 67.8722C179.527 68.2246 179.7 68.7023 179.7 69.2006V145.223C179.7 145.721 179.527 146.199 179.22 146.551C178.913 146.904 178.497 147.102 178.062 147.102V147.102Z" fill="#6C63FF"/>
<path id="Vector_20" d="M174.526 107.28C175.03 106.913 175.599 106.677 176.191 106.589C176.783 106.502 177.385 106.564 177.954 106.772C178.523 106.98 179.046 107.329 179.484 107.794C179.923 108.259 180.268 108.829 180.494 109.463L194.989 108.554L191.186 116.032L178.004 115.748C177.051 116.114 176.013 116.065 175.089 115.612C174.164 115.158 173.417 114.331 172.988 113.287C172.559 112.243 172.479 111.055 172.763 109.948C173.046 108.841 173.674 107.891 174.526 107.28H174.526Z" fill="#FFB6B6"/>
<path id="Vector_21" d="M203.131 118.984L188.605 118.559L188.792 107.53L195.661 105.021L206.928 86.8835C207.492 85.9753 208.209 85.2062 209.037 84.6215C209.864 84.0369 210.786 83.6487 211.746 83.4798C212.707 83.3109 213.687 83.3648 214.629 83.6383C215.571 83.9118 216.456 84.3993 217.231 85.0721C218.006 85.7448 218.656 86.5891 219.142 87.555C219.628 88.521 219.94 89.5889 220.06 90.6958C220.18 91.8026 220.106 92.9258 219.841 93.999C219.576 95.0722 219.127 96.0736 218.519 96.944L203.131 118.984Z" fill="#3F3D56"/>
<path id="Vector_22" d="M266.594 230H111.82C111.767 230 111.714 229.988 111.664 229.965C111.615 229.942 111.57 229.907 111.532 229.864C111.494 229.821 111.464 229.769 111.444 229.713C111.423 229.656 111.413 229.595 111.413 229.534C111.413 229.472 111.423 229.412 111.444 229.355C111.464 229.298 111.494 229.247 111.532 229.204C111.57 229.16 111.615 229.126 111.664 229.103C111.714 229.079 111.767 229.067 111.82 229.068H266.594C266.647 229.067 266.7 229.079 266.75 229.103C266.799 229.126 266.844 229.16 266.882 229.204C266.92 229.247 266.95 229.298 266.97 229.355C266.991 229.412 267.001 229.472 267.001 229.534C267.001 229.595 266.991 229.656 266.97 229.713C266.95 229.769 266.92 229.821 266.882 229.864C266.844 229.907 266.799 229.942 266.75 229.965C266.7 229.988 266.647 230 266.594 230V230Z" fill="#CACACA"/>
</g>
<defs>
<clipPath id="clip0">
<rect width="267" height="230" fill="white"/>
</clipPath>
</defs>
</svg>
